<!-- by TradingView --><svg width="56" height="56" viewBox="0 0 56 56" xmlns="http://www.w3.org/2000/svg"><path fill="#F0F3FA" d="M0 0h56v56H0z"/><path d="M14.47 14.13a.2.2 0 0 1 .12.02c10.42 5.72 18.52 16.38 18.52 28.66 0 .05-.02.1-.05.13a.18.18 0 0 1-.13.05c-9.79.02-15 .01-15.6 0a4.2 4.2 0 0 1-3.94-2.5c-.28-.59-.41-1.65-.4-3.2.03-1.79.03-8.4.02-19.82 0-1.3.45-2.4 1.34-3.28a.2.2 0 0 1 .12-.06ZM39.02 13c1.74.28 2.91 1.09 3.5 2.42.32.7.48 2.04.48 4.01a6723.22 6723.22 0 0 0-.04 18.44h-.02v-.02c-.05-.1-.31-.81-.8-2.13-4.4-11.9-14.97-19.03-26.9-21.98a.07.07 0 0 1-.03-.02.08.08 0 0 1-.02-.04v-.04l.03-.03a3.86 3.86 0 0 1 1.8-.61h22Z" fill="#FF7C00"/></svg>